<?xml version="1.0" encoding="UTF-8" standalone="no"?>
<!DOCTYPE svg PUBLIC "-//W3C//DTD SVG 1.1//EN"
 "http://www.w3.org/Graphics/SVG/1.1/DTD/svg11.dtd">
<!-- Generated by graphviz version 8.0.3 (20230416.2022)
 -->
<!-- Title: packages Pages: 1 -->
<svg width="713pt" height="116pt"
 viewBox="0.00 0.00 713.00 116.00" xmlns="http://www.w3.org/2000/svg" xmlns:xlink="http://www.w3.org/1999/xlink">
<g id="graph0" class="graph" transform="scale(1 1) rotate(0) translate(4 112)">
<title>packages</title>
<polygon fill="white" stroke="none" points="-4,4 -4,-112 709,-112 709,4 -4,4"/>
<!-- copier_template_tester -->
<g id="node1" class="node">
<title>copier_template_tester</title>
<polygon fill="none" stroke="black" points="231.5,-36 91.5,-36 91.5,0 231.5,0 231.5,-36"/>
<text text-anchor="middle" x="161.5" y="-14.3" font-family="Times,serif" font-size="14.00">copier_template_tester</text>
</g>
<!-- copier_template_tester._config -->
<g id="node2" class="node">
<title>copier_template_tester._config</title>
<polygon fill="none" stroke="black" points="185,-108 0,-108 0,-72 185,-72 185,-108"/>
<text text-anchor="middle" x="92.5" y="-86.3" font-family="Times,serif" font-size="14.00">copier_template_tester._config</text>
</g>
<!-- copier_template_tester._pre_commit_support -->
<g id="node3" class="node">
<title>copier_template_tester._pre_commit_support</title>
<polygon fill="none" stroke="black" points="467.5,-108 203.5,-108 203.5,-72 467.5,-72 467.5,-108"/>
<text text-anchor="middle" x="335.5" y="-86.3" font-family="Times,serif" font-size="14.00">copier_template_tester._pre_commit_support</text>
</g>
<!-- copier_template_tester._write_output -->
<g id="node4" class="node">
<title>copier_template_tester._write_output</title>
<polygon fill="none" stroke="black" points="705,-108 486,-108 486,-72 705,-72 705,-108"/>
<text text-anchor="middle" x="595.5" y="-86.3" font-family="Times,serif" font-size="14.00">copier_template_tester._write_output</text>
</g>
<!-- copier_template_tester.main -->
<g id="node5" class="node">
<title>copier_template_tester.main</title>
<polygon fill="none" stroke="black" points="421,-36 250,-36 250,0 421,0 421,-36"/>
<text text-anchor="middle" x="335.5" y="-14.3" font-family="Times,serif" font-size="14.00">copier_template_tester.main</text>
</g>
<!-- copier_template_tester.main&#45;&gt;copier_template_tester._config -->
<g id="edge1" class="edge">
<title>copier_template_tester.main&#45;&gt;copier_template_tester._config</title>
<path fill="none" stroke="black" d="M274.81,-36.48C240.61,-46.33 197.76,-58.68 162.19,-68.93"/>
<polygon fill="black" stroke="black" points="152.84,-71.62 161.2,-64.53 157.64,-70.23 162.45,-68.85 162.45,-68.85 162.45,-68.85 157.64,-70.23 163.69,-73.17 152.84,-71.62 152.84,-71.62"/>
</g>
<!-- copier_template_tester.main&#45;&gt;copier_template_tester._pre_commit_support -->
<g id="edge2" class="edge">
<title>copier_template_tester.main&#45;&gt;copier_template_tester._pre_commit_support</title>
<path fill="none" stroke="black" d="M335.5,-36.3C335.5,-44.1 335.5,-53.49 335.5,-62.17"/>
<polygon fill="black" stroke="black" points="335.5,-71.9 331,-61.9 335.5,-66.9 335.5,-61.9 335.5,-61.9 335.5,-61.9 335.5,-66.9 340,-61.9 335.5,-71.9 335.5,-71.9"/>
</g>
<!-- copier_template_tester.main&#45;&gt;copier_template_tester._write_output -->
<g id="edge3" class="edge">
<title>copier_template_tester.main&#45;&gt;copier_template_tester._write_output</title>
<path fill="none" stroke="black" d="M400.44,-36.48C437.18,-46.38 483.27,-58.78 521.42,-69.06"/>
<polygon fill="black" stroke="black" points="530.94,-71.62 520.11,-73.36 526.11,-70.32 521.28,-69.02 521.28,-69.02 521.28,-69.02 526.11,-70.32 522.45,-64.67 530.94,-71.62 530.94,-71.62"/>
</g>
</g>
</svg>
