<?xml version="1.0" encoding="UTF-8" standalone="no"?>
<!DOCTYPE svg PUBLIC "-//W3C//DTD SVG 1.1//EN"
 "http://www.w3.org/Graphics/SVG/1.1/DTD/svg11.dtd">
<!-- Generated by graphviz version 11.0.0 (20240428.1522)
 -->
<!-- Title: packages Pages: 1 -->
<svg width="710pt" height="116pt"
 viewBox="0.00 0.00 710.25 116.00" xmlns="http://www.w3.org/2000/svg" xmlns:xlink="http://www.w3.org/1999/xlink">
<g id="graph0" class="graph" transform="scale(1 1) rotate(0) translate(4 112)">
<title>packages</title>
<polygon fill="white" stroke="none" points="-4,4 -4,-112 706.25,-112 706.25,4 -4,4"/>
<!-- copier_template_tester -->
<g id="node1" class="node">
<title>copier_template_tester</title>
<polygon fill="none" stroke="black" points="230.88,-36 91.12,-36 91.12,0 230.88,0 230.88,-36"/>
<text text-anchor="middle" x="161" y="-12.95" font-family="Times,serif" font-size="14.00">copier_template_tester</text>
</g>
<!-- copier_template_tester._config -->
<g id="node2" class="node">
<title>copier_template_tester._config</title>
<polygon fill="none" stroke="black" points="184,-108 0,-108 0,-72 184,-72 184,-108"/>
<text text-anchor="middle" x="92" y="-84.95" font-family="Times,serif" font-size="14.00">copier_template_tester._config</text>
</g>
<!-- copier_template_tester._pre_commit_support -->
<g id="node3" class="node">
<title>copier_template_tester._pre_commit_support</title>
<polygon fill="none" stroke="black" points="465.75,-108 202.25,-108 202.25,-72 465.75,-72 465.75,-108"/>
<text text-anchor="middle" x="334" y="-84.95" font-family="Times,serif" font-size="14.00">copier_template_tester._pre_commit_support</text>
</g>
<!-- copier_template_tester._write_output -->
<g id="node4" class="node">
<title>copier_template_tester._write_output</title>
<polygon fill="none" stroke="black" points="702.25,-108 483.75,-108 483.75,-72 702.25,-72 702.25,-108"/>
<text text-anchor="middle" x="593" y="-84.95" font-family="Times,serif" font-size="14.00">copier_template_tester._write_output</text>
</g>
<!-- copier_template_tester.main -->
<g id="node5" class="node">
<title>copier_template_tester.main</title>
<polygon fill="none" stroke="black" points="419.25,-36 248.75,-36 248.75,0 419.25,0 419.25,-36"/>
<text text-anchor="middle" x="334" y="-12.95" font-family="Times,serif" font-size="14.00">copier_template_tester.main</text>
</g>
<!-- copier_template_tester.main&#45;&gt;copier_template_tester._config -->
<g id="edge1" class="edge">
<title>copier_template_tester.main&#45;&gt;copier_template_tester._config</title>
<path fill="none" stroke="black" d="M273.56,-36.48C239.94,-46.21 197.91,-58.36 162.76,-68.53"/>
<polygon fill="black" stroke="black" points="153.26,-71.28 161.62,-64.18 156.89,-70.23 162.87,-68.5 162.87,-68.5 162.87,-68.5 156.89,-70.23 164.12,-72.82 153.26,-71.28"/>
</g>
<!-- copier_template_tester.main&#45;&gt;copier_template_tester._pre_commit_support -->
<g id="edge2" class="edge">
<title>copier_template_tester.main&#45;&gt;copier_template_tester._pre_commit_support</title>
<path fill="none" stroke="black" d="M334,-36.3C334,-43.68 334,-52.48 334,-60.75"/>
<polygon fill="black" stroke="black" points="334,-70.68 329.5,-60.68 334,-66.9 334,-60.68 334,-60.68 334,-60.68 334,-66.9 338.5,-60.68 334,-70.68"/>
</g>
<!-- copier_template_tester.main&#45;&gt;copier_template_tester._write_output -->
<g id="edge3" class="edge">
<title>copier_template_tester.main&#45;&gt;copier_template_tester._write_output</title>
<path fill="none" stroke="black" d="M398.69,-36.48C434.98,-46.29 480.43,-58.57 518.24,-68.79"/>
<polygon fill="black" stroke="black" points="527.51,-71.3 516.68,-73.04 523.86,-70.31 517.86,-68.69 517.86,-68.69 517.86,-68.69 523.86,-70.31 519.03,-64.35 527.51,-71.3"/>
</g>
</g>
</svg>
