<?xml version="1.0" encoding="UTF-8" standalone="no"?>
<!DOCTYPE svg PUBLIC "-//W3C//DTD SVG 1.1//EN"
 "http://www.w3.org/Graphics/SVG/1.1/DTD/svg11.dtd">
<!-- Generated by graphviz version 2.43.0 (0)
 -->
<!-- Title: packages Pages: 1 -->
<svg width="897pt" height="116pt"
 viewBox="0.00 0.00 896.50 116.00" xmlns="http://www.w3.org/2000/svg" xmlns:xlink="http://www.w3.org/1999/xlink">
<g id="graph0" class="graph" transform="scale(1 1) rotate(0) translate(4 112)">
<title>packages</title>
<polygon fill="white" stroke="transparent" points="-4,4 -4,-112 892.5,-112 892.5,4 -4,4"/>
<!-- copier_template_tester -->
<g id="node1" class="node">
<title>copier_template_tester</title>
<polygon fill="none" stroke="black" points="292,-36 111,-36 111,0 292,0 292,-36"/>
<text text-anchor="middle" x="201.5" y="-14.3" font-family="Times,serif" font-size="14.00">copier_template_tester</text>
</g>
<!-- copier_template_tester._config -->
<g id="node2" class="node">
<title>copier_template_tester._config</title>
<polygon fill="none" stroke="black" points="233,-108 0,-108 0,-72 233,-72 233,-108"/>
<text text-anchor="middle" x="116.5" y="-86.3" font-family="Times,serif" font-size="14.00">copier_template_tester._config</text>
</g>
<!-- copier_template_tester._pre_commit_support -->
<g id="node3" class="node">
<title>copier_template_tester._pre_commit_support</title>
<polygon fill="none" stroke="black" points="588,-108 251,-108 251,-72 588,-72 588,-108"/>
<text text-anchor="middle" x="419.5" y="-86.3" font-family="Times,serif" font-size="14.00">copier_template_tester._pre_commit_support</text>
</g>
<!-- copier_template_tester._write_output -->
<g id="node4" class="node">
<title>copier_template_tester._write_output</title>
<polygon fill="none" stroke="black" points="888.5,-108 606.5,-108 606.5,-72 888.5,-72 888.5,-108"/>
<text text-anchor="middle" x="747.5" y="-86.3" font-family="Times,serif" font-size="14.00">copier_template_tester._write_output</text>
</g>
<!-- copier_template_tester.main -->
<g id="node5" class="node">
<title>copier_template_tester.main</title>
<polygon fill="none" stroke="black" points="529,-36 310,-36 310,0 529,0 529,-36"/>
<text text-anchor="middle" x="419.5" y="-14.3" font-family="Times,serif" font-size="14.00">copier_template_tester.main</text>
</g>
<!-- copier_template_tester.main&#45;&gt;copier_template_tester._config -->
<g id="edge1" class="edge">
<title>copier_template_tester.main&#45;&gt;copier_template_tester._config</title>
<path fill="none" stroke="black" d="M345.77,-36.03C301.78,-46.2 245.8,-59.13 200.17,-69.67"/>
<polygon fill="black" stroke="black" points="190.3,-71.95 199.03,-65.31 195.17,-70.82 200.05,-69.7 200.05,-69.7 200.05,-69.7 195.17,-70.82 201.06,-74.08 190.3,-71.95 190.3,-71.95"/>
</g>
<!-- copier_template_tester.main&#45;&gt;copier_template_tester._pre_commit_support -->
<g id="edge2" class="edge">
<title>copier_template_tester.main&#45;&gt;copier_template_tester._pre_commit_support</title>
<path fill="none" stroke="black" d="M419.5,-36.3C419.5,-44.02 419.5,-53.29 419.5,-61.89"/>
<polygon fill="black" stroke="black" points="419.5,-71.9 415,-61.9 419.5,-66.9 419.5,-61.9 419.5,-61.9 419.5,-61.9 419.5,-66.9 424,-61.9 419.5,-71.9 419.5,-71.9"/>
</g>
<!-- copier_template_tester.main&#45;&gt;copier_template_tester._write_output -->
<g id="edge3" class="edge">
<title>copier_template_tester.main&#45;&gt;copier_template_tester._write_output</title>
<path fill="none" stroke="black" d="M499.32,-36.03C547.13,-46.24 608.04,-59.24 657.55,-69.8"/>
<polygon fill="black" stroke="black" points="667.61,-71.95 656.89,-74.26 662.72,-70.91 657.83,-69.86 657.83,-69.86 657.83,-69.86 662.72,-70.91 658.77,-65.46 667.61,-71.95 667.61,-71.95"/>
</g>
</g>
</svg>
